# xmcd
#
# Track frame offsets:
#	150
#	15878
#	33522
#	51155
#	77032
#	92342
#	108894
#	123428
#	137233
#	154687
#
# Disc length: 2322 seconds
# Revision: 0
# Processed by: cddbd v1.5.2PL0 Copyright (c) Steve Scherf et al.
# Submitted via: dBpowerAMP V12.0
#
DISCID=6e09100a
DTITLE=Gillian Welch - Boots No. 1, Disc 1 of 2
DYEAR=2016
DGENRE=Country
TTITLE0=Orphan Girl (Alternate Version)
TTITLE1=Annabelle (Alternate Version)
TTITLE2=Pass You By (Alternate Version)
TTITLE3=Go On Downtown (Revival Outtake)
TTITLE4=Red Clay Halo (Revival Outtake)
TTITLE5=By The Mark (Alternate Mix)
TTITLE6=Paper Wings (Demo)
TTITLE7=Georgia Road (Revival Outtake)
TTITLE8=Tear My Stillhouse Down (Home Demo)
TTITLE9=Only One And Only (Alternate Version)
EXTD=
EXTT0=
EXTT1=
EXTT2=
EXTT3=
EXTT4=
EXTT5=
EXTT6=
EXTT7=
EXTT8=
EXTT9=
PLAYORDER=
